#!OML:ASF F:\VICON\USERDATA\INSTALL\Justin_Nancy\Justin_Nancy.ASF
:FULLY-SPECIFIED
:DEGREES
1
root 12.4279 17.1092 -31.2961 -0.346448 -7.57527 -1.66129
lowerback 5.76587 2.16139 1.80502
upperback -0.0361138 3.08455 2.52168
thorax -3.31342 1.5238 1.32535
lowerneck -10.8293 -3.47213 -9.47892
upperneck 20.6726 -3.98012 4.68727
head 8.50744 -2.15694 2.73769
rclavicle 4.40308e-014 1.51076e-014
rhumerus -31.1686 -7.38109 -77.1207
rradius 52.7907
rwrist -1.13726
rhand -17.5904 10.0467
rfingers 7.12502
rthumb 8.66558 -19.7554
lclavicle 4.40308e-014 1.51076e-014
lhumerus -42.1955 15.5125 79.7707
lradius 23.1145
lwrist -16.0434
lhand -11.5141 26.6377
lfingers 7.12502
lthumb 14.5252 56.1092
rfemur 8.29347 7.02858 26.3432
rtibia 43.3499
rfoot 12.2621 6.43605
rtoes 7.66688
lfemur -29.185 0.698154 -17.0019
ltibia 30.333
lfoot -2.37596 -1.94939
ltoes -11.1707
2
root 12.4224 17.1185 -31.0455 -0.559743 -6.55049 -1.13005
lowerback 5.82957 1.77302 1.47213
upperback 0.0077349 2.53758 2.28347
thorax -3.30023 1.25553 1.31098
lowerneck -10.8467 -3.40823 -9.56089
upperneck 20.4869 -3.91413 4.89456
head 8.44745 -2.10929 2.82749
rclavicle -1.41386e-014 -2.70347e-014
rhumerus -31.6664 -7.5825 -77.365
rradius 53.0557
rwrist -2.43079
rhand -18.0098 11.0561
rfingers 7.12502
rthumb 8.26086 -18.7624
lclavicle -1.41386e-014 -2.70347e-014
lhumerus -41.9327 15.9823 79.3256
lradius 22.8753
lwrist -16.9684
lhand -10.1146 26.185
lfingers 7.12502
lthumb 15.8733 55.5543
rfemur 6.57469 6.17869 25.7001
rtibia 46.909
rfoot 15.268 6.13231
rtoes 10.4623
lfemur -28.6341 0.556559 -17.9534
ltibia 30.9437
lfoot -2.6347 -2.62779
ltoes -5.64228
3
root 12.4252 17.1454 -30.7938 -0.9676 -7.14054 -0.525827
lowerback 6.25556 2.00103 1.09329
upperback 0.150126 2.81166 1.97377
thorax -3.39797 1.39476 1.16709
lowerneck -11.0648 -3.49941 -9.44889
upperneck 20.3361 -4.05454 4.97235
head 8.44587 -2.15451 2.81592
rclavicle 3.28243e-014 -3.18055e-015
rhumerus -31.9808 -8.23276 -77.4913
rradius 53.249
rwrist -2.56456
rhand -18.0572 11.0926
rfingers 7.12502
rthumb 8.21513 -18.7276
lclavicle 3.28243e-014 -3.18055e-015
lhumerus -41.5508 16.3942 78.8825
lradius 22.5079
lwrist -17.5703
lhand -6.53716 40.6085
lfingers 7.12502
lthumb 19.3159 69.6691
rfemur 4.80465 6.64554 24.8116
rtibia 50.3397
rfoot 18.6252 6.23549
rtoes 12.6325
lfemur -27.434 1.26197 -18.821
ltibia 31.2214
lfoot -2.79006 -2.61758
ltoes -3.3172
4
root 12.4275 17.1803 -30.5331 -1.30649 -7.40049 0.11986
lowerback 6.43858 2.13824 0.616056
upperback 0.414695 2.94911 1.73116
thorax -3.23991 1.46868 1.16975
lowerneck -12.0049 -3.62524 -9.25633
upperneck 20.6818 -4.15628 4.83642
head 8.73697 -2.1922 2.71831
rclavicle -2.3382e-014 7.95139e-016
rhumerus -32.0912 -8.74935 -77.5778
rradius 53.4925
rwrist -2.91601
rhand -18.3206 11.0017
rfingers 7.12502
rthumb 7.96094 -18.8284
lclavicle -2.3382e-014 7.95139e-016
lhumerus -41.2073 16.6413 78.7144
lradius 22.471
lwrist -17.3755
lhand -9.23784 32.6545
lfingers 7.12502
lthumb 16.7175 61.9547
rfemur 3.03491 6.76169 23.9049
rtibia 53.5671
rfoot 20.7719 6.40284
rtoes 14.3669
lfemur -26.2831 1.81826 -19.7956
ltibia 31.4965
lfoot -3.35996 -2.96938
ltoes -3.84445
5
root 12.4226 17.2087 -30.2862 -1.58252 -7.57822 0.615354
lowerback 6.58344 2.12193 0.0885002
upperback 0.690909 2.88391 1.67743
thorax -3.05762 1.44238 1.41584
lowerneck -12.9667 -3.52215 -9.21284
upperneck 21.0233 -3.89553 4.65559
head 9.00754 -2.07632 2.67266
rclavicle -4.34841e-015 1.43125e-014
rhumerus -31.8932 -8.72065 -77.7495
rradius 53.5232
rwrist -3.18574
rhand -18.6366 10.6412
rfingers 7.12502
rthumb 7.65596 -19.2002
lclavicle -4.34841e-015 1.43125e-014
lhumerus -40.9571 17.1218 78.6649
lradius 22.6081
lwrist -17.0771
lhand -10.3673 28.3046
lfingers 7.12502
lthumb 15.63 57.6932
rfemur 1.27778 6.79497 23.2615
rtibia 56.6897
rfoot 21.0694 5.84657
rtoes 14.8191
lfemur -25.2413 2.16762 -20.5354
ltibia 31.6904
lfoot -3.88774 -3.23049
ltoes -2.6481
6
root 12.4198 17.2335 -30.0381 -1.79617 -7.69941 1.21968
lowerback 6.71306 1.98306 -0.416826
upperback 0.872277 2.65579 1.53762
thorax -2.95301 1.3331 1.57497
lowerneck -13.692 -3.33716 -9.31776
upperneck 21.0459 -3.53824 4.64024
head 9.12433 -1.91039 2.72204
rclavicle -1.33931e-014 -3.97569e-015
rhumerus -31.6983 -8.49682 -78.0593
rradius 53.2332
rwrist -3.10259
rhand -18.4719 10.5252
rfingers 7.12502
rthumb 7.81484 -19.3104
lclavicle -1.33931e-014 -3.97569e-015
lhumerus -40.6493 17.8183 78.4776
lradius 22.6462
lwrist -17.0637
lhand -10.4058 28.1003
lfingers 7.12502
lthumb 15.5929 57.4918
rfemur -0.574689 6.63899 22.4578
rtibia 59.6734
rfoot 20.3082 4.71313
rtoes 14.7323
lfemur -24.2674 1.97867 -21.3015
ltibia 31.8048
lfoot -4.08854 -2.50872
ltoes -0.164031
7
root 12.4173 17.2607 -29.7928 -1.83786 -7.68632 1.67626
lowerback 6.6498 1.82497 -0.684817
upperback 1.47746 2.41546 1.43212
thorax -2.29206 1.20932 1.65214
lowerneck -16.0413 -3.45054 -9.52678
upperneck 21.3125 -3.39897 4.59739
head 9.64845 -1.84199 2.74377
rclavicle -4.43787e-014 -1.51076e-014
rhumerus -30.441 -8.55242 -78.4576
rradius 52.6975
rwrist -2.92507
rhand -18.1892 10.53
rfingers 7.12502
rthumb 8.08772 -19.2953
lclavicle -4.43787e-014 -1.51076e-014
lhumerus -38.905 18.5218 78.8868
lradius 22.3182
lwrist -17.3475
lhand -9.92258 29.8901
lfingers 7.12502
lthumb 16.0582 59.2447
rfemur -2.55932 6.34008 21.8214
rtibia 62.4169
rfoot 18.9502 3.63822
rtoes 13.8081
lfemur -23.3168 1.5625 -21.9434
ltibia 31.852
lfoot -4.49706 -1.34291
ltoes -0.540726
8
root 12.4113 17.2906 -29.567 -1.95781 -7.52966 2.1164
lowerback 7.22745 1.64577 -1.10807
upperback 0.565567 2.14651 1.25597
thorax -3.5558 1.09167 1.70092
lowerneck -13.1624 -3.0682 -9.22514
upperneck 20.7712 -3.18069 4.41187
head 8.89893 -1.76267 2.67248
rclavicle -5.24295e-015 -2.38542e-015
rhumerus -32.383 -8.15751 -78.6143
rradius 52.4313
rwrist -2.79145
rhand -18.3253 10.3747
rfingers 7.12502
rthumb 7.95635 -19.4555
lclavicle -5.24295e-015 -2.38542e-015
lhumerus -40.3699 17.9793 78.214
lradius 21.8878
lwrist -16.8073
lhand -10.7223 28.9488
lfingers 7.12502
lthumb 15.2879 58.3637
rfemur -4.4808 5.8228 21.2146
rtibia 64.799
rfoot 17.1634 2.56588
rtoes 11.2698
lfemur -22.28 1.26722 -22.5977
ltibia 31.7659
lfoot -5.51653 -1.23347
ltoes -2.47279
9
root 12.4111 17.3212 -29.3168 -2.15176 -7.86633 2.48055
lowerback 8.31428 1.70308 -1.05475
upperback -0.149278 2.2066 0.852329
thorax -4.89332 1.12675 1.20394
lowerneck -12.6135 -2.91045 -8.71797
upperneck 21.1957 -3.11808 4.31945
head 8.92579 -1.71612 2.57228
rclavicle -3.45016e-014 6.36111e-015
rhumerus -33.8912 -8.2941 -79.0109
rradius 52.1136
rwrist -2.56725
rhand -18.332 10.1457
rfingers 7.12502
rthumb 7.94993 -19.6848
lclavicle -3.45016e-014 6.36111e-015
lhumerus -41.0151 16.9877 77.7564
lradius 21.5088
lwrist -16.4179
lhand -10.8541 29.6297
lfingers 7.12502
lthumb 15.161 59.0543
rfemur -6.23712 5.63086 20.6407
rtibia 66.7578
rfoot 15.4682 1.27279
rtoes 9.42097
lfemur -21.0072 1.09056 -23.0829
ltibia 31.5516
lfoot -6.25608 -0.356847
ltoes -2.72288
10
root 12.4231 17.3577 -29.0296 -2.44039 -8.82536 2.82318
lowerback 6.80868 1.99752 -1.38462
upperback 0.951642 2.58794 1.05708
thorax -2.9426 1.30704 1.62637
lowerneck -13.4358 -3.00186 -8.95469
upperneck 20.6986 -3.02299 3.97765
head 8.90247 -1.70854 2.494
rclavicle -5.66536e-015 -3.97569e-015
rhumerus -32.4314 -8.46217 -78.804
rradius 51.2554
rwrist -2.34211
rhand -18.1572 9.68656
rfingers 7.12502
rthumb 8.1186 -20.1375
lclavicle -5.66536e-015 -3.97569e-015
lhumerus -38.9999 17.3939 78.8597
lradius 21.1085
lwrist -17.0631
lhand -10.4785 31.3807
lfingers 7.12502
lthumb 15.5228 60.7776
rfemur -7.75775 5.95908 20.009
rtibia 68.3122
rfoot 14.007 0.0132654
rtoes 10.3218
lfemur -19.3221 1.16891 -23.5605
ltibia 31.2134
lfoot -7.08912 0.953146
ltoes -3.08777
11
root 12.4162 17.3893 -28.7959 -2.84918 -8.7587 3.08539
lowerback 6.6944 1.86833 -1.78864
upperback 1.39552 2.39223 1.24267
thorax -2.43718 1.20607 2.07508
lowerneck -13.3018 -2.92305 -9.2553
upperneck 20.1911 -2.81406 3.82053
head 8.69434 -1.64257 2.51087
rclavicle -2.71341e-014 3.97569e-015
rhumerus -31.8266 -8.34928 -78.7365
rradius 50.3556
rwrist -1.99847
rhand -17.9105 9.75559
rfingers 7.12502
rthumb 8.35674 -20.0591
lclavicle -2.71341e-014 3.97569e-015
lhumerus -37.9409 17.9273 79.2369
lradius 20.4627
lwrist -17.4187
lhand -11.3508 29.0063
lfingers 7.12502
lthumb 14.6826 58.4664
rfemur -9.15962 5.34942 19.608
rtibia 69.6529
rfoot 12.5419 -0.959626
rtoes 10.9963
lfemur -17.8177 0.939149 -23.954
ltibia 30.9018
lfoot -7.80348 1.21634
ltoes -3.32419
